<mxfile host="app.diagrams.net" agent="Mozilla/5.0 (Windows NT 10.0; Win64; x64) AppleWebKit/537.36 (KHTML, like Gecko) Chrome/131.0.0.0 Safari/537.36" version="26.0.6" pages="2">
  <diagram name="Page-1" id="1C5fZG1CRCOUfOr8VbJO">
    <mxGraphModel grid="1" page="1" gridSize="10" guides="1" tooltips="1" connect="1" arrows="1" fold="1" pageScale="1" pageWidth="850" pageHeight="1100" math="0" shadow="0">
      <root>
        <mxCell id="0" />
        <mxCell id="1" parent="0" />
        <mxCell id="1c7_2xzmiHs_9LhRJC44-23" value="&#xa;&lt;span style=&quot;color: rgb(0, 0, 0); font-family: Helvetica; font-size: 12px; font-style: normal; font-variant-ligatures: normal; font-variant-caps: normal; font-weight: 700; letter-spacing: normal; orphans: 2; text-align: center; text-indent: 0px; text-transform: none; widows: 2; word-spacing: 0px; -webkit-text-stroke-width: 0px; white-space: nowrap; background-color: rgb(251, 251, 251); text-decoration-thickness: initial; text-decoration-style: initial; text-decoration-color: initial; display: inline !important; float: none;&quot;&gt;Job Provider&lt;/span&gt;&#xa;&#xa;" style="swimlane;html=1;childLayout=stackLayout;resizeParent=1;resizeParentMax=0;horizontal=0;startSize=20;horizontalStack=0;whiteSpace=wrap;" vertex="1" parent="1">
          <mxGeometry x="-150" y="180" width="1790" height="570" as="geometry" />
        </mxCell>
        <mxCell id="l29Ze6xHV0u3jzNfMT6h-2" style="edgeStyle=orthogonalEdgeStyle;rounded=0;orthogonalLoop=1;jettySize=auto;html=1;exitX=1;exitY=0;exitDx=0;exitDy=0;" edge="1" parent="1c7_2xzmiHs_9LhRJC44-23" source="1c7_2xzmiHs_9LhRJC44-26">
          <mxGeometry relative="1" as="geometry">
            <mxPoint x="1790" y="371" as="targetPoint" />
            <Array as="points">
              <mxPoint x="1790" y="371" />
              <mxPoint x="1790" y="371" />
            </Array>
          </mxGeometry>
        </mxCell>
        <mxCell id="1c7_2xzmiHs_9LhRJC44-24" value="" style="swimlane;html=1;startSize=20;horizontal=0;strokeWidth=1;" vertex="1" parent="1c7_2xzmiHs_9LhRJC44-23">
          <mxGeometry x="20" width="1770" height="370" as="geometry" />
        </mxCell>
        <mxCell id="1c7_2xzmiHs_9LhRJC44-69" value="Yes" style="text;html=1;align=center;verticalAlign=middle;resizable=0;points=[];autosize=1;strokeColor=none;fillColor=none;" vertex="1" parent="1c7_2xzmiHs_9LhRJC44-24">
          <mxGeometry x="1160" width="40" height="30" as="geometry" />
        </mxCell>
        <mxCell id="1c7_2xzmiHs_9LhRJC44-43" value="Yes" style="text;html=1;align=center;verticalAlign=middle;resizable=0;points=[];autosize=1;strokeColor=none;fillColor=none;" vertex="1" parent="1c7_2xzmiHs_9LhRJC44-24">
          <mxGeometry x="360" y="10" width="40" height="30" as="geometry" />
        </mxCell>
        <mxCell id="LZQYQP9SohFktknV7NJk-5" value="" style="edgeStyle=elbowEdgeStyle;fontSize=12;html=1;endFill=0;startFill=0;endSize=6;startSize=6;dashed=1;dashPattern=1 4;endArrow=openThin;startArrow=none;rounded=0;exitX=0.5;exitY=1;exitDx=0;exitDy=0;strokeWidth=2;" edge="1" parent="1c7_2xzmiHs_9LhRJC44-24" source="1c7_2xzmiHs_9LhRJC44-45">
          <mxGeometry width="160" relative="1" as="geometry">
            <mxPoint x="430" y="110" as="sourcePoint" />
            <mxPoint x="430" y="390" as="targetPoint" />
            <Array as="points">
              <mxPoint x="430" y="140" />
            </Array>
          </mxGeometry>
        </mxCell>
        <mxCell id="LZQYQP9SohFktknV7NJk-10" value="" style="edgeStyle=elbowEdgeStyle;fontSize=12;html=1;endFill=0;startFill=0;endSize=6;startSize=6;dashed=1;dashPattern=1 4;endArrow=none;startArrow=none;rounded=0;strokeWidth=2;" edge="1" parent="1c7_2xzmiHs_9LhRJC44-24">
          <mxGeometry width="160" relative="1" as="geometry">
            <mxPoint x="470" y="170" as="sourcePoint" />
            <mxPoint x="560" y="170" as="targetPoint" />
            <Array as="points" />
          </mxGeometry>
        </mxCell>
        <mxCell id="LZQYQP9SohFktknV7NJk-11" value="" style="edgeStyle=elbowEdgeStyle;fontSize=12;html=1;endFill=0;startFill=0;endSize=6;startSize=6;dashed=1;dashPattern=1 4;endArrow=none;startArrow=none;rounded=0;entryX=0.89;entryY=0.979;entryDx=0;entryDy=0;entryPerimeter=0;strokeWidth=2;" edge="1" parent="1c7_2xzmiHs_9LhRJC44-24" target="1c7_2xzmiHs_9LhRJC44-45">
          <mxGeometry width="160" relative="1" as="geometry">
            <mxPoint x="470" y="170" as="sourcePoint" />
            <mxPoint x="470" y="170" as="targetPoint" />
          </mxGeometry>
        </mxCell>
        <mxCell id="OBXZxXEnHMJ0P1bxB99H-1" value="" style="group" connectable="0" vertex="1" parent="1c7_2xzmiHs_9LhRJC44-24">
          <mxGeometry x="30" y="20" width="1590" height="120" as="geometry" />
        </mxCell>
        <mxCell id="1c7_2xzmiHs_9LhRJC44-27" value="" style="ellipse;whiteSpace=wrap;html=1;aspect=fixed;" vertex="1" parent="OBXZxXEnHMJ0P1bxB99H-1">
          <mxGeometry width="50" height="50" as="geometry" />
        </mxCell>
        <mxCell id="1c7_2xzmiHs_9LhRJC44-29" value="" style="edgeStyle=elbowEdgeStyle;fontSize=12;html=1;endArrow=blockThin;endFill=1;rounded=0;" edge="1" parent="OBXZxXEnHMJ0P1bxB99H-1">
          <mxGeometry width="160" relative="1" as="geometry">
            <mxPoint x="50" y="24" as="sourcePoint" />
            <mxPoint x="70" y="24" as="targetPoint" />
          </mxGeometry>
        </mxCell>
        <mxCell id="1c7_2xzmiHs_9LhRJC44-36" value="Register" style="rounded=1;whiteSpace=wrap;html=1;" vertex="1" parent="OBXZxXEnHMJ0P1bxB99H-1">
          <mxGeometry x="70" y="10" width="70" height="40" as="geometry" />
        </mxCell>
        <mxCell id="1c7_2xzmiHs_9LhRJC44-37" value="" style="edgeStyle=elbowEdgeStyle;fontSize=12;html=1;endArrow=blockThin;endFill=1;rounded=0;" edge="1" parent="OBXZxXEnHMJ0P1bxB99H-1">
          <mxGeometry width="160" relative="1" as="geometry">
            <mxPoint x="140" y="30" as="sourcePoint" />
            <mxPoint x="160" y="30" as="targetPoint" />
          </mxGeometry>
        </mxCell>
        <mxCell id="1c7_2xzmiHs_9LhRJC44-39" value="" style="edgeStyle=elbowEdgeStyle;fontSize=12;html=1;endArrow=blockThin;endFill=1;rounded=0;" edge="1" parent="OBXZxXEnHMJ0P1bxB99H-1">
          <mxGeometry width="160" relative="1" as="geometry">
            <mxPoint x="240" y="30" as="sourcePoint" />
            <mxPoint x="280" y="30" as="targetPoint" />
          </mxGeometry>
        </mxCell>
        <mxCell id="1c7_2xzmiHs_9LhRJC44-40" value="" style="points=[[0.25,0.25,0],[0.5,0,0],[0.75,0.25,0],[1,0.5,0],[0.75,0.75,0],[0.5,1,0],[0.25,0.75,0],[0,0.5,0]];shape=mxgraph.bpmn.gateway2;html=1;verticalLabelPosition=bottom;labelBackgroundColor=#ffffff;verticalAlign=top;align=center;perimeter=rhombusPerimeter;outlineConnect=0;outline=none;symbol=none;" vertex="1" parent="OBXZxXEnHMJ0P1bxB99H-1">
          <mxGeometry x="280" y="5" width="60" height="45" as="geometry" />
        </mxCell>
        <mxCell id="1c7_2xzmiHs_9LhRJC44-42" value="" style="edgeStyle=elbowEdgeStyle;fontSize=12;html=1;endArrow=blockThin;endFill=1;rounded=0;exitX=1;exitY=0.5;exitDx=0;exitDy=0;exitPerimeter=0;" edge="1" parent="OBXZxXEnHMJ0P1bxB99H-1" source="1c7_2xzmiHs_9LhRJC44-40">
          <mxGeometry width="160" relative="1" as="geometry">
            <mxPoint x="350" y="30" as="sourcePoint" />
            <mxPoint x="365" y="28" as="targetPoint" />
          </mxGeometry>
        </mxCell>
        <mxCell id="1c7_2xzmiHs_9LhRJC44-46" value="" style="edgeStyle=elbowEdgeStyle;fontSize=12;html=1;endArrow=blockThin;endFill=1;rounded=0;" edge="1" parent="OBXZxXEnHMJ0P1bxB99H-1">
          <mxGeometry width="160" relative="1" as="geometry">
            <mxPoint x="440" y="30" as="sourcePoint" />
            <mxPoint x="490" y="30" as="targetPoint" />
          </mxGeometry>
        </mxCell>
        <mxCell id="1c7_2xzmiHs_9LhRJC44-47" value="Subscription&lt;div&gt;Plan&lt;/div&gt;" style="rounded=1;whiteSpace=wrap;html=1;" vertex="1" parent="OBXZxXEnHMJ0P1bxB99H-1">
          <mxGeometry x="490" y="10" width="80" height="40" as="geometry" />
        </mxCell>
        <mxCell id="1c7_2xzmiHs_9LhRJC44-48" value="" style="edgeStyle=elbowEdgeStyle;fontSize=12;html=1;endArrow=blockThin;endFill=1;rounded=0;" edge="1" parent="OBXZxXEnHMJ0P1bxB99H-1">
          <mxGeometry width="160" relative="1" as="geometry">
            <mxPoint x="570" y="30" as="sourcePoint" />
            <mxPoint x="600" y="30" as="targetPoint" />
          </mxGeometry>
        </mxCell>
        <mxCell id="1c7_2xzmiHs_9LhRJC44-49" value="Search&lt;div&gt;Profile&lt;/div&gt;" style="rounded=1;whiteSpace=wrap;html=1;" vertex="1" parent="OBXZxXEnHMJ0P1bxB99H-1">
          <mxGeometry x="600" y="10" width="90" height="40" as="geometry" />
        </mxCell>
        <mxCell id="1c7_2xzmiHs_9LhRJC44-50" value="" style="edgeStyle=elbowEdgeStyle;fontSize=12;html=1;endArrow=blockThin;endFill=1;rounded=0;" edge="1" parent="OBXZxXEnHMJ0P1bxB99H-1">
          <mxGeometry width="160" relative="1" as="geometry">
            <mxPoint x="690" y="30" as="sourcePoint" />
            <mxPoint x="740" y="30" as="targetPoint" />
          </mxGeometry>
        </mxCell>
        <mxCell id="1c7_2xzmiHs_9LhRJC44-52" value="Follow&lt;div&gt;Profiles&lt;/div&gt;" style="rounded=1;whiteSpace=wrap;html=1;" vertex="1" parent="OBXZxXEnHMJ0P1bxB99H-1">
          <mxGeometry x="740" y="10" width="80" height="40" as="geometry" />
        </mxCell>
        <mxCell id="1c7_2xzmiHs_9LhRJC44-53" value="" style="edgeStyle=elbowEdgeStyle;fontSize=12;html=1;endArrow=blockThin;endFill=1;rounded=0;" edge="1" parent="OBXZxXEnHMJ0P1bxB99H-1">
          <mxGeometry width="160" relative="1" as="geometry">
            <mxPoint x="820" y="30" as="sourcePoint" />
            <mxPoint x="870" y="30" as="targetPoint" />
          </mxGeometry>
        </mxCell>
        <mxCell id="1c7_2xzmiHs_9LhRJC44-54" value="Search&lt;div&gt;Jobs&lt;/div&gt;" style="rounded=1;whiteSpace=wrap;html=1;" vertex="1" parent="OBXZxXEnHMJ0P1bxB99H-1">
          <mxGeometry x="870" y="10" width="60" height="40" as="geometry" />
        </mxCell>
        <mxCell id="1c7_2xzmiHs_9LhRJC44-55" value="" style="edgeStyle=elbowEdgeStyle;fontSize=12;html=1;endArrow=blockThin;endFill=1;rounded=0;" edge="1" parent="OBXZxXEnHMJ0P1bxB99H-1">
          <mxGeometry width="160" relative="1" as="geometry">
            <mxPoint x="930" y="30" as="sourcePoint" />
            <mxPoint x="975" y="30" as="targetPoint" />
          </mxGeometry>
        </mxCell>
        <mxCell id="1c7_2xzmiHs_9LhRJC44-56" value="Apply Job" style="rounded=1;whiteSpace=wrap;html=1;" vertex="1" parent="OBXZxXEnHMJ0P1bxB99H-1">
          <mxGeometry x="980" y="10" width="70" height="40" as="geometry" />
        </mxCell>
        <mxCell id="1c7_2xzmiHs_9LhRJC44-59" value="" style="edgeStyle=elbowEdgeStyle;fontSize=12;html=1;endArrow=blockThin;endFill=1;rounded=0;" edge="1" parent="OBXZxXEnHMJ0P1bxB99H-1">
          <mxGeometry width="160" relative="1" as="geometry">
            <mxPoint x="1050" y="30" as="sourcePoint" />
            <mxPoint x="1100" y="30" as="targetPoint" />
          </mxGeometry>
        </mxCell>
        <mxCell id="1c7_2xzmiHs_9LhRJC44-60" value="" style="points=[[0.25,0.25,0],[0.5,0,0],[0.75,0.25,0],[1,0.5,0],[0.75,0.75,0],[0.5,1,0],[0.25,0.75,0],[0,0.5,0]];shape=mxgraph.bpmn.gateway2;html=1;verticalLabelPosition=bottom;labelBackgroundColor=#ffffff;verticalAlign=top;align=center;perimeter=rhombusPerimeter;outlineConnect=0;outline=none;symbol=none;" vertex="1" parent="OBXZxXEnHMJ0P1bxB99H-1">
          <mxGeometry x="1100" width="50" height="50" as="geometry" />
        </mxCell>
        <mxCell id="1c7_2xzmiHs_9LhRJC44-61" value="" style="edgeStyle=elbowEdgeStyle;fontSize=12;html=1;endArrow=blockThin;endFill=1;rounded=0;exitX=1;exitY=0.5;exitDx=0;exitDy=0;exitPerimeter=0;" edge="1" parent="OBXZxXEnHMJ0P1bxB99H-1" source="1c7_2xzmiHs_9LhRJC44-60">
          <mxGeometry width="160" relative="1" as="geometry">
            <mxPoint x="1160" y="20" as="sourcePoint" />
            <mxPoint x="1180" y="25" as="targetPoint" />
            <Array as="points" />
          </mxGeometry>
        </mxCell>
        <mxCell id="1c7_2xzmiHs_9LhRJC44-64" value="View&lt;div&gt;Interview&lt;/div&gt;&lt;div&gt;Schedule&lt;/div&gt;" style="rounded=1;whiteSpace=wrap;html=1;" vertex="1" parent="OBXZxXEnHMJ0P1bxB99H-1">
          <mxGeometry x="1180" y="5" width="60" height="55" as="geometry" />
        </mxCell>
        <mxCell id="1c7_2xzmiHs_9LhRJC44-66" value="" style="edgeStyle=orthogonalEdgeStyle;fontSize=12;html=1;endArrow=blockThin;endFill=1;rounded=0;" edge="1" parent="OBXZxXEnHMJ0P1bxB99H-1">
          <mxGeometry width="160" relative="1" as="geometry">
            <mxPoint x="1130" y="70" as="sourcePoint" />
            <mxPoint x="1130" y="80" as="targetPoint" />
            <Array as="points">
              <mxPoint x="1130" y="50" />
              <mxPoint x="1130" y="50" />
            </Array>
          </mxGeometry>
        </mxCell>
        <mxCell id="1c7_2xzmiHs_9LhRJC44-73" value="Save Jobs" style="rounded=1;whiteSpace=wrap;html=1;" vertex="1" parent="OBXZxXEnHMJ0P1bxB99H-1">
          <mxGeometry x="1090" y="78" width="90" height="42" as="geometry" />
        </mxCell>
        <mxCell id="1c7_2xzmiHs_9LhRJC44-74" value="" style="edgeStyle=orthogonalEdgeStyle;fontSize=12;html=1;endArrow=blockThin;endFill=1;rounded=0;entryX=0.857;entryY=1;entryDx=0;entryDy=0;entryPerimeter=0;" edge="1" parent="OBXZxXEnHMJ0P1bxB99H-1" target="1c7_2xzmiHs_9LhRJC44-56">
          <mxGeometry width="160" relative="1" as="geometry">
            <mxPoint x="1090" y="100" as="sourcePoint" />
            <mxPoint x="1040" y="60" as="targetPoint" />
            <Array as="points">
              <mxPoint x="1090" y="90" />
              <mxPoint x="1040" y="90" />
            </Array>
          </mxGeometry>
        </mxCell>
        <mxCell id="1c7_2xzmiHs_9LhRJC44-76" value="" style="edgeStyle=elbowEdgeStyle;fontSize=12;html=1;endArrow=blockThin;endFill=1;rounded=0;" edge="1" parent="OBXZxXEnHMJ0P1bxB99H-1">
          <mxGeometry width="160" relative="1" as="geometry">
            <mxPoint x="1240" y="30" as="sourcePoint" />
            <mxPoint x="1290" y="30" as="targetPoint" />
          </mxGeometry>
        </mxCell>
        <mxCell id="1c7_2xzmiHs_9LhRJC44-77" value="Message&lt;div&gt;System&lt;/div&gt;" style="rounded=1;whiteSpace=wrap;html=1;" vertex="1" parent="OBXZxXEnHMJ0P1bxB99H-1">
          <mxGeometry x="1290" y="10" width="80" height="40" as="geometry" />
        </mxCell>
        <mxCell id="1c7_2xzmiHs_9LhRJC44-78" value="" style="edgeStyle=elbowEdgeStyle;fontSize=12;html=1;endArrow=blockThin;endFill=1;rounded=0;" edge="1" parent="OBXZxXEnHMJ0P1bxB99H-1">
          <mxGeometry width="160" relative="1" as="geometry">
            <mxPoint x="1370" y="30" as="sourcePoint" />
            <mxPoint x="1410" y="30" as="targetPoint" />
          </mxGeometry>
        </mxCell>
        <mxCell id="1c7_2xzmiHs_9LhRJC44-79" value="Logout" style="rounded=1;whiteSpace=wrap;html=1;" vertex="1" parent="OBXZxXEnHMJ0P1bxB99H-1">
          <mxGeometry x="1410" y="10" width="90" height="40" as="geometry" />
        </mxCell>
        <mxCell id="1c7_2xzmiHs_9LhRJC44-80" value="" style="edgeStyle=elbowEdgeStyle;fontSize=12;html=1;endArrow=blockThin;endFill=1;rounded=0;" edge="1" parent="OBXZxXEnHMJ0P1bxB99H-1">
          <mxGeometry width="160" relative="1" as="geometry">
            <mxPoint x="1500" y="30" as="sourcePoint" />
            <mxPoint x="1540" y="30" as="targetPoint" />
          </mxGeometry>
        </mxCell>
        <mxCell id="1c7_2xzmiHs_9LhRJC44-81" value="" style="points=[[0.145,0.145,0],[0.5,0,0],[0.855,0.145,0],[1,0.5,0],[0.855,0.855,0],[0.5,1,0],[0.145,0.855,0],[0,0.5,0]];shape=mxgraph.bpmn.event;html=1;verticalLabelPosition=bottom;labelBackgroundColor=#ffffff;verticalAlign=top;align=center;perimeter=ellipsePerimeter;outlineConnect=0;aspect=fixed;outline=end;symbol=terminate2;" vertex="1" parent="OBXZxXEnHMJ0P1bxB99H-1">
          <mxGeometry x="1540" width="50" height="50" as="geometry" />
        </mxCell>
        <mxCell id="1c7_2xzmiHs_9LhRJC44-101" value="Login" style="rounded=1;whiteSpace=wrap;html=1;" vertex="1" parent="OBXZxXEnHMJ0P1bxB99H-1">
          <mxGeometry x="160" y="10" width="90" height="40" as="geometry" />
        </mxCell>
        <mxCell id="1c7_2xzmiHs_9LhRJC44-45" value="Profile&lt;div&gt;Creation&lt;/div&gt;" style="rounded=1;whiteSpace=wrap;html=1;" vertex="1" parent="OBXZxXEnHMJ0P1bxB99H-1">
          <mxGeometry x="370" y="10" width="75" height="40" as="geometry" />
        </mxCell>
        <mxCell id="1c7_2xzmiHs_9LhRJC44-44" value="No" style="text;html=1;align=center;verticalAlign=middle;resizable=0;points=[];autosize=1;strokeColor=none;fillColor=none;" vertex="1" parent="OBXZxXEnHMJ0P1bxB99H-1">
          <mxGeometry x="340" y="48" width="40" height="30" as="geometry" />
        </mxCell>
        <mxCell id="05Kp0AucWtGKDs6EXRJo-30" value="" style="edgeStyle=orthogonalEdgeStyle;fontSize=12;html=1;endArrow=blockThin;endFill=1;rounded=0;startSize=8;endSize=8;exitX=0.5;exitY=1;exitDx=0;exitDy=0;exitPerimeter=0;" edge="1" parent="OBXZxXEnHMJ0P1bxB99H-1" source="1c7_2xzmiHs_9LhRJC44-40">
          <mxGeometry width="160" relative="1" as="geometry">
            <mxPoint x="310" y="92" as="sourcePoint" />
            <mxPoint x="210" y="60" as="targetPoint" />
            <Array as="points">
              <mxPoint x="310" y="93" />
              <mxPoint x="211" y="93" />
              <mxPoint x="211" y="60" />
            </Array>
          </mxGeometry>
        </mxCell>
        <mxCell id="1c7_2xzmiHs_9LhRJC44-26" value="Admin" style="swimlane;html=1;startSize=20;horizontal=0;" vertex="1" parent="1c7_2xzmiHs_9LhRJC44-23">
          <mxGeometry x="20" y="370" width="1770" height="200" as="geometry" />
        </mxCell>
        <mxCell id="05Kp0AucWtGKDs6EXRJo-68" value="" style="points=[[0.145,0.145,0],[0.5,0,0],[0.855,0.145,0],[1,0.5,0],[0.855,0.855,0],[0.5,1,0],[0.145,0.855,0],[0,0.5,0]];shape=mxgraph.bpmn.event;html=1;verticalLabelPosition=bottom;labelBackgroundColor=#ffffff;verticalAlign=top;align=center;perimeter=ellipsePerimeter;outlineConnect=0;aspect=fixed;outline=standard;symbol=general;" vertex="1" parent="1c7_2xzmiHs_9LhRJC44-26">
          <mxGeometry x="30" y="20" width="50" height="50" as="geometry" />
        </mxCell>
        <mxCell id="rIcg6RIrn0UOZhV_5DZh-1" value="" style="group" connectable="0" vertex="1" parent="1c7_2xzmiHs_9LhRJC44-26">
          <mxGeometry x="80" y="25" width="1070" height="55" as="geometry" />
        </mxCell>
        <mxCell id="05Kp0AucWtGKDs6EXRJo-69" value="" style="edgeStyle=elbowEdgeStyle;fontSize=12;html=1;endArrow=blockThin;endFill=1;rounded=0;startSize=8;endSize=8;curved=1;" edge="1" parent="rIcg6RIrn0UOZhV_5DZh-1">
          <mxGeometry width="160" relative="1" as="geometry">
            <mxPoint y="25" as="sourcePoint" />
            <mxPoint x="40" y="25" as="targetPoint" />
          </mxGeometry>
        </mxCell>
        <mxCell id="05Kp0AucWtGKDs6EXRJo-70" value="Login" style="rounded=1;whiteSpace=wrap;html=1;" vertex="1" parent="rIcg6RIrn0UOZhV_5DZh-1">
          <mxGeometry x="40" y="5" width="70" height="30" as="geometry" />
        </mxCell>
        <mxCell id="05Kp0AucWtGKDs6EXRJo-71" value="" style="edgeStyle=elbowEdgeStyle;fontSize=12;html=1;endArrow=blockThin;endFill=1;rounded=0;startSize=8;endSize=8;curved=1;" edge="1" parent="rIcg6RIrn0UOZhV_5DZh-1">
          <mxGeometry width="160" relative="1" as="geometry">
            <mxPoint x="110" y="25" as="sourcePoint" />
            <mxPoint x="160" y="25" as="targetPoint" />
          </mxGeometry>
        </mxCell>
        <mxCell id="05Kp0AucWtGKDs6EXRJo-72" value="Job Provider&lt;div&gt;Management&lt;/div&gt;" style="rounded=1;whiteSpace=wrap;html=1;" vertex="1" parent="rIcg6RIrn0UOZhV_5DZh-1">
          <mxGeometry x="160" y="5" width="80" height="40" as="geometry" />
        </mxCell>
        <mxCell id="05Kp0AucWtGKDs6EXRJo-73" value="" style="edgeStyle=elbowEdgeStyle;fontSize=12;html=1;endArrow=blockThin;endFill=1;rounded=0;startSize=8;endSize=8;curved=1;" edge="1" parent="rIcg6RIrn0UOZhV_5DZh-1">
          <mxGeometry width="160" relative="1" as="geometry">
            <mxPoint x="240" y="25" as="sourcePoint" />
            <mxPoint x="290" y="25" as="targetPoint" />
          </mxGeometry>
        </mxCell>
        <mxCell id="05Kp0AucWtGKDs6EXRJo-74" value="Jobseeker&lt;div&gt;Mangement&lt;/div&gt;" style="rounded=1;whiteSpace=wrap;html=1;" vertex="1" parent="rIcg6RIrn0UOZhV_5DZh-1">
          <mxGeometry x="290" y="5" width="110" height="50" as="geometry" />
        </mxCell>
        <mxCell id="05Kp0AucWtGKDs6EXRJo-76" value="" style="edgeStyle=elbowEdgeStyle;fontSize=12;html=1;endArrow=blockThin;endFill=1;rounded=0;startSize=8;endSize=8;curved=1;" edge="1" parent="rIcg6RIrn0UOZhV_5DZh-1">
          <mxGeometry width="160" relative="1" as="geometry">
            <mxPoint x="400" y="25" as="sourcePoint" />
            <mxPoint x="440" y="25" as="targetPoint" />
          </mxGeometry>
        </mxCell>
        <mxCell id="05Kp0AucWtGKDs6EXRJo-77" value="Monitizing&lt;div&gt;Jobpost&lt;/div&gt;" style="rounded=1;whiteSpace=wrap;html=1;" vertex="1" parent="rIcg6RIrn0UOZhV_5DZh-1">
          <mxGeometry x="450" y="5" width="110" height="40" as="geometry" />
        </mxCell>
        <mxCell id="05Kp0AucWtGKDs6EXRJo-78" value="" style="edgeStyle=elbowEdgeStyle;fontSize=12;html=1;endArrow=blockThin;endFill=1;rounded=0;startSize=8;endSize=8;curved=1;" edge="1" parent="rIcg6RIrn0UOZhV_5DZh-1">
          <mxGeometry width="160" relative="1" as="geometry">
            <mxPoint x="560" y="25" as="sourcePoint" />
            <mxPoint x="596" y="25" as="targetPoint" />
          </mxGeometry>
        </mxCell>
        <mxCell id="05Kp0AucWtGKDs6EXRJo-79" value="Subscription&lt;div&gt;Plan&lt;/div&gt;" style="rounded=1;whiteSpace=wrap;html=1;" vertex="1" parent="rIcg6RIrn0UOZhV_5DZh-1">
          <mxGeometry x="600" width="90" height="45" as="geometry" />
        </mxCell>
        <mxCell id="05Kp0AucWtGKDs6EXRJo-81" value="" style="edgeStyle=elbowEdgeStyle;fontSize=12;html=1;endArrow=blockThin;endFill=1;rounded=0;startSize=8;endSize=8;curved=1;" edge="1" parent="rIcg6RIrn0UOZhV_5DZh-1">
          <mxGeometry width="160" relative="1" as="geometry">
            <mxPoint x="690" y="25" as="sourcePoint" />
            <mxPoint x="730" y="25" as="targetPoint" />
          </mxGeometry>
        </mxCell>
        <mxCell id="05Kp0AucWtGKDs6EXRJo-82" value="Notification&lt;div&gt;Plan&lt;/div&gt;" style="rounded=1;whiteSpace=wrap;html=1;" vertex="1" parent="rIcg6RIrn0UOZhV_5DZh-1">
          <mxGeometry x="730" y="5" width="90" height="40" as="geometry" />
        </mxCell>
        <mxCell id="05Kp0AucWtGKDs6EXRJo-83" value="" style="edgeStyle=elbowEdgeStyle;fontSize=12;html=1;endArrow=blockThin;endFill=1;rounded=0;startSize=8;endSize=8;curved=1;" edge="1" parent="rIcg6RIrn0UOZhV_5DZh-1">
          <mxGeometry width="160" relative="1" as="geometry">
            <mxPoint x="820" y="24.29" as="sourcePoint" />
            <mxPoint x="860" y="24" as="targetPoint" />
          </mxGeometry>
        </mxCell>
        <mxCell id="05Kp0AucWtGKDs6EXRJo-84" value="Logout" style="rounded=1;whiteSpace=wrap;html=1;" vertex="1" parent="rIcg6RIrn0UOZhV_5DZh-1">
          <mxGeometry x="860" y="5" width="110" height="50" as="geometry" />
        </mxCell>
        <mxCell id="05Kp0AucWtGKDs6EXRJo-86" value="" style="edgeStyle=elbowEdgeStyle;fontSize=12;html=1;endArrow=blockThin;endFill=1;rounded=0;startSize=8;endSize=8;curved=1;" edge="1" parent="rIcg6RIrn0UOZhV_5DZh-1">
          <mxGeometry width="160" relative="1" as="geometry">
            <mxPoint x="970" y="25" as="sourcePoint" />
            <mxPoint x="1020" y="25" as="targetPoint" />
          </mxGeometry>
        </mxCell>
        <mxCell id="05Kp0AucWtGKDs6EXRJo-88" value="" style="points=[[0.145,0.145,0],[0.5,0,0],[0.855,0.145,0],[1,0.5,0],[0.855,0.855,0],[0.5,1,0],[0.145,0.855,0],[0,0.5,0]];shape=mxgraph.bpmn.event;html=1;verticalLabelPosition=bottom;labelBackgroundColor=#ffffff;verticalAlign=top;align=center;perimeter=ellipsePerimeter;outlineConnect=0;aspect=fixed;outline=end;symbol=terminate2;" vertex="1" parent="rIcg6RIrn0UOZhV_5DZh-1">
          <mxGeometry x="1020" y="5" width="50" height="50" as="geometry" />
        </mxCell>
        <mxCell id="LZQYQP9SohFktknV7NJk-12" value="" style="edgeStyle=elbowEdgeStyle;fontSize=12;html=1;endFill=0;startFill=0;endSize=6;startSize=6;dashed=1;dashPattern=1 4;endArrow=openThin;startArrow=none;rounded=0;exitX=0.25;exitY=0;exitDx=0;exitDy=0;strokeWidth=2;" edge="1" parent="1c7_2xzmiHs_9LhRJC44-23" source="05Kp0AucWtGKDs6EXRJo-72">
          <mxGeometry width="160" relative="1" as="geometry">
            <mxPoint x="270" y="390" as="sourcePoint" />
            <mxPoint x="220" y="310" as="targetPoint" />
            <Array as="points">
              <mxPoint x="220" y="390" />
            </Array>
          </mxGeometry>
        </mxCell>
        <mxCell id="1c7_2xzmiHs_9LhRJC44-70" value="No" style="text;html=1;align=center;verticalAlign=middle;resizable=0;points=[];autosize=1;strokeColor=none;fillColor=none;" vertex="1" parent="1">
          <mxGeometry x="1070" y="258" width="40" height="30" as="geometry" />
        </mxCell>
        <mxCell id="05Kp0AucWtGKDs6EXRJo-45" value="no" style="text;html=1;align=center;verticalAlign=middle;resizable=0;points=[];autosize=1;strokeColor=none;fillColor=none;fontSize=16;" vertex="1" parent="1">
          <mxGeometry x="314" y="511" width="40" height="30" as="geometry" />
        </mxCell>
        <mxCell id="1c7_2xzmiHs_9LhRJC44-25" value="Job Provider" style="swimlane;html=1;startSize=20;horizontal=0;" vertex="1" parent="1">
          <mxGeometry x="-150" y="340" width="1770" height="210" as="geometry" />
        </mxCell>
        <mxCell id="05Kp0AucWtGKDs6EXRJo-31" value="" style="points=[[0.145,0.145,0],[0.5,0,0],[0.855,0.145,0],[1,0.5,0],[0.855,0.855,0],[0.5,1,0],[0.145,0.855,0],[0,0.5,0]];shape=mxgraph.bpmn.event;html=1;verticalLabelPosition=bottom;labelBackgroundColor=#ffffff;verticalAlign=top;align=center;perimeter=ellipsePerimeter;outlineConnect=0;aspect=fixed;outline=standard;symbol=general;" vertex="1" parent="1c7_2xzmiHs_9LhRJC44-25">
          <mxGeometry x="30" y="20" width="50" height="50" as="geometry" />
        </mxCell>
        <mxCell id="05Kp0AucWtGKDs6EXRJo-44" value="Yes" style="text;html=1;align=center;verticalAlign=middle;resizable=0;points=[];autosize=1;strokeColor=none;fillColor=none;fontSize=16;" vertex="1" parent="1c7_2xzmiHs_9LhRJC44-25">
          <mxGeometry x="420" y="10" width="50" height="30" as="geometry" />
        </mxCell>
        <mxCell id="LZQYQP9SohFktknV7NJk-8" value="" style="edgeStyle=elbowEdgeStyle;fontSize=12;html=1;endFill=0;startFill=0;endSize=6;startSize=6;dashed=1;dashPattern=1 4;endArrow=openThin;startArrow=none;rounded=0;strokeWidth=2;" edge="1" parent="1c7_2xzmiHs_9LhRJC44-25">
          <mxGeometry width="160" relative="1" as="geometry">
            <mxPoint x="580" y="-80" as="sourcePoint" />
            <mxPoint x="580.14" y="150" as="targetPoint" />
            <Array as="points" />
          </mxGeometry>
        </mxCell>
        <mxCell id="LZQYQP9SohFktknV7NJk-13" value="" style="edgeStyle=elbowEdgeStyle;fontSize=12;html=1;endFill=0;startFill=0;endSize=6;startSize=6;dashed=1;dashPattern=1 4;endArrow=openThin;startArrow=none;rounded=0;strokeWidth=2;" edge="1" parent="1c7_2xzmiHs_9LhRJC44-25">
          <mxGeometry width="160" relative="1" as="geometry">
            <mxPoint x="140" y="-120" as="sourcePoint" />
            <mxPoint x="410" y="140" as="targetPoint" />
            <Array as="points">
              <mxPoint x="410" y="85" />
            </Array>
          </mxGeometry>
        </mxCell>
        <mxCell id="LZQYQP9SohFktknV7NJk-15" value="" style="edgeStyle=elbowEdgeStyle;fontSize=12;html=1;endFill=0;startFill=0;endSize=6;startSize=6;dashed=1;dashPattern=1 4;endArrow=none;startArrow=none;rounded=0;" edge="1" parent="1c7_2xzmiHs_9LhRJC44-25">
          <mxGeometry width="160" relative="1" as="geometry">
            <mxPoint x="140" y="-140" as="sourcePoint" />
            <mxPoint x="140" y="-120" as="targetPoint" />
            <Array as="points">
              <mxPoint x="140" y="-180" />
            </Array>
          </mxGeometry>
        </mxCell>
        <mxCell id="LZQYQP9SohFktknV7NJk-16" value="" style="edgeStyle=elbowEdgeStyle;fontSize=12;html=1;endFill=0;startFill=0;endSize=6;startSize=6;dashed=1;dashPattern=1 4;endArrow=openThin;startArrow=none;rounded=0;entryX=1;entryY=0;entryDx=0;entryDy=0;strokeWidth=2;" edge="1" parent="1c7_2xzmiHs_9LhRJC44-25" target="05Kp0AucWtGKDs6EXRJo-72">
          <mxGeometry width="160" relative="1" as="geometry">
            <mxPoint x="336" y="100" as="sourcePoint" />
            <mxPoint x="420" y="100" as="targetPoint" />
          </mxGeometry>
        </mxCell>
        <mxCell id="xe_D3SM2XZq7FrdhX7PX-1" value="" style="group" connectable="0" vertex="1" parent="1c7_2xzmiHs_9LhRJC44-25">
          <mxGeometry x="80" y="15" width="1610" height="135" as="geometry" />
        </mxCell>
        <mxCell id="05Kp0AucWtGKDs6EXRJo-32" value="" style="edgeStyle=elbowEdgeStyle;fontSize=12;html=1;endArrow=blockThin;endFill=1;rounded=0;startSize=8;endSize=8;curved=1;" edge="1" parent="xe_D3SM2XZq7FrdhX7PX-1">
          <mxGeometry width="160" relative="1" as="geometry">
            <mxPoint y="25" as="sourcePoint" />
            <mxPoint x="46" y="25" as="targetPoint" />
          </mxGeometry>
        </mxCell>
        <mxCell id="05Kp0AucWtGKDs6EXRJo-33" value="Register" style="rounded=1;whiteSpace=wrap;html=1;" vertex="1" parent="xe_D3SM2XZq7FrdhX7PX-1">
          <mxGeometry x="50" y="5" width="70" height="40" as="geometry" />
        </mxCell>
        <mxCell id="05Kp0AucWtGKDs6EXRJo-34" value="" style="edgeStyle=elbowEdgeStyle;fontSize=12;html=1;endArrow=blockThin;endFill=1;rounded=0;startSize=8;endSize=8;curved=1;" edge="1" parent="xe_D3SM2XZq7FrdhX7PX-1">
          <mxGeometry width="160" relative="1" as="geometry">
            <mxPoint x="120" y="25" as="sourcePoint" />
            <mxPoint x="170" y="25" as="targetPoint" />
          </mxGeometry>
        </mxCell>
        <mxCell id="05Kp0AucWtGKDs6EXRJo-35" value="Login" style="rounded=1;whiteSpace=wrap;html=1;" vertex="1" parent="xe_D3SM2XZq7FrdhX7PX-1">
          <mxGeometry x="170" y="5" width="70" height="40" as="geometry" />
        </mxCell>
        <mxCell id="05Kp0AucWtGKDs6EXRJo-36" value="" style="edgeStyle=elbowEdgeStyle;fontSize=12;html=1;endArrow=blockThin;endFill=1;rounded=0;startSize=8;endSize=8;curved=1;" edge="1" parent="xe_D3SM2XZq7FrdhX7PX-1">
          <mxGeometry width="160" relative="1" as="geometry">
            <mxPoint x="240" y="25" as="sourcePoint" />
            <mxPoint x="290" y="25" as="targetPoint" />
          </mxGeometry>
        </mxCell>
        <mxCell id="05Kp0AucWtGKDs6EXRJo-37" value="Profile&lt;div&gt;Creation&lt;/div&gt;" style="rounded=1;whiteSpace=wrap;html=1;" vertex="1" parent="xe_D3SM2XZq7FrdhX7PX-1">
          <mxGeometry x="390" y="10" width="82" height="40" as="geometry" />
        </mxCell>
        <mxCell id="05Kp0AucWtGKDs6EXRJo-38" value="" style="points=[[0.25,0.25,0],[0.5,0,0],[0.75,0.25,0],[1,0.5,0],[0.75,0.75,0],[0.5,1,0],[0.25,0.75,0],[0,0.5,0]];shape=mxgraph.bpmn.gateway2;html=1;verticalLabelPosition=bottom;labelBackgroundColor=#ffffff;verticalAlign=top;align=center;perimeter=rhombusPerimeter;outlineConnect=0;outline=none;symbol=none;" vertex="1" parent="xe_D3SM2XZq7FrdhX7PX-1">
          <mxGeometry x="290" width="50" height="45" as="geometry" />
        </mxCell>
        <mxCell id="05Kp0AucWtGKDs6EXRJo-42" value="" style="edgeStyle=orthogonalEdgeStyle;fontSize=12;html=1;endArrow=blockThin;endFill=1;rounded=0;startSize=8;endSize=8;exitX=0.5;exitY=1;exitDx=0;exitDy=0;exitPerimeter=0;entryX=0.5;entryY=1;entryDx=0;entryDy=0;" edge="1" parent="xe_D3SM2XZq7FrdhX7PX-1" source="05Kp0AucWtGKDs6EXRJo-38" target="05Kp0AucWtGKDs6EXRJo-35">
          <mxGeometry width="160" relative="1" as="geometry">
            <mxPoint x="310" y="75" as="sourcePoint" />
            <mxPoint x="200" y="65" as="targetPoint" />
            <Array as="points">
              <mxPoint x="315" y="65" />
              <mxPoint x="205" y="65" />
            </Array>
          </mxGeometry>
        </mxCell>
        <mxCell id="05Kp0AucWtGKDs6EXRJo-43" value="" style="edgeStyle=elbowEdgeStyle;fontSize=12;html=1;endArrow=blockThin;endFill=1;rounded=0;startSize=8;endSize=8;curved=1;" edge="1" parent="xe_D3SM2XZq7FrdhX7PX-1">
          <mxGeometry width="160" relative="1" as="geometry">
            <mxPoint x="340" y="25" as="sourcePoint" />
            <mxPoint x="390" y="25" as="targetPoint" />
          </mxGeometry>
        </mxCell>
        <mxCell id="05Kp0AucWtGKDs6EXRJo-47" value="" style="edgeStyle=elbowEdgeStyle;fontSize=12;html=1;endArrow=blockThin;endFill=1;rounded=0;startSize=8;endSize=8;curved=1;" edge="1" parent="xe_D3SM2XZq7FrdhX7PX-1">
          <mxGeometry width="160" relative="1" as="geometry">
            <mxPoint x="470" y="25" as="sourcePoint" />
            <mxPoint x="510" y="25" as="targetPoint" />
          </mxGeometry>
        </mxCell>
        <mxCell id="05Kp0AucWtGKDs6EXRJo-48" value="Subscription&lt;div&gt;Plan&lt;/div&gt;" style="rounded=1;whiteSpace=wrap;html=1;" vertex="1" parent="xe_D3SM2XZq7FrdhX7PX-1">
          <mxGeometry x="510" y="15" width="70" height="50" as="geometry" />
        </mxCell>
        <mxCell id="05Kp0AucWtGKDs6EXRJo-49" value="" style="edgeStyle=elbowEdgeStyle;fontSize=12;html=1;endArrow=blockThin;endFill=1;rounded=0;startSize=8;endSize=8;curved=1;" edge="1" parent="xe_D3SM2XZq7FrdhX7PX-1">
          <mxGeometry width="160" relative="1" as="geometry">
            <mxPoint x="580" y="35" as="sourcePoint" />
            <mxPoint x="630" y="35" as="targetPoint" />
          </mxGeometry>
        </mxCell>
        <mxCell id="05Kp0AucWtGKDs6EXRJo-50" value="Job Posting" style="rounded=1;whiteSpace=wrap;html=1;" vertex="1" parent="xe_D3SM2XZq7FrdhX7PX-1">
          <mxGeometry x="630" y="15" width="80" height="40" as="geometry" />
        </mxCell>
        <mxCell id="05Kp0AucWtGKDs6EXRJo-52" value="" style="edgeStyle=elbowEdgeStyle;fontSize=12;html=1;endArrow=blockThin;endFill=1;rounded=0;startSize=8;endSize=8;curved=1;" edge="1" parent="xe_D3SM2XZq7FrdhX7PX-1">
          <mxGeometry width="160" relative="1" as="geometry">
            <mxPoint x="710" y="35" as="sourcePoint" />
            <mxPoint x="756" y="35" as="targetPoint" />
          </mxGeometry>
        </mxCell>
        <mxCell id="05Kp0AucWtGKDs6EXRJo-53" value="Search&lt;div&gt;Profile&lt;/div&gt;" style="rounded=1;whiteSpace=wrap;html=1;" vertex="1" parent="xe_D3SM2XZq7FrdhX7PX-1">
          <mxGeometry x="760" y="10" width="90" height="45" as="geometry" />
        </mxCell>
        <mxCell id="05Kp0AucWtGKDs6EXRJo-54" value="" style="edgeStyle=elbowEdgeStyle;fontSize=12;html=1;endArrow=blockThin;endFill=1;rounded=0;startSize=8;endSize=8;curved=1;" edge="1" parent="xe_D3SM2XZq7FrdhX7PX-1">
          <mxGeometry width="160" relative="1" as="geometry">
            <mxPoint x="850" y="35" as="sourcePoint" />
            <mxPoint x="900" y="35" as="targetPoint" />
          </mxGeometry>
        </mxCell>
        <mxCell id="05Kp0AucWtGKDs6EXRJo-55" value="View&lt;div&gt;Application&lt;/div&gt;" style="rounded=1;whiteSpace=wrap;html=1;" vertex="1" parent="xe_D3SM2XZq7FrdhX7PX-1">
          <mxGeometry x="900" y="10" width="90" height="45" as="geometry" />
        </mxCell>
        <mxCell id="05Kp0AucWtGKDs6EXRJo-56" value="" style="edgeStyle=elbowEdgeStyle;fontSize=12;html=1;endArrow=blockThin;endFill=1;rounded=0;startSize=8;endSize=8;curved=1;" edge="1" parent="xe_D3SM2XZq7FrdhX7PX-1">
          <mxGeometry width="160" relative="1" as="geometry">
            <mxPoint x="990" y="35" as="sourcePoint" />
            <mxPoint x="1040" y="35" as="targetPoint" />
          </mxGeometry>
        </mxCell>
        <mxCell id="05Kp0AucWtGKDs6EXRJo-57" value="Sorting" style="rounded=1;whiteSpace=wrap;html=1;" vertex="1" parent="xe_D3SM2XZq7FrdhX7PX-1">
          <mxGeometry x="1040" y="10" width="90" height="45" as="geometry" />
        </mxCell>
        <mxCell id="05Kp0AucWtGKDs6EXRJo-58" value="" style="edgeStyle=elbowEdgeStyle;fontSize=12;html=1;endArrow=blockThin;endFill=1;rounded=0;startSize=8;endSize=8;curved=1;" edge="1" parent="xe_D3SM2XZq7FrdhX7PX-1">
          <mxGeometry width="160" relative="1" as="geometry">
            <mxPoint x="1130" y="25" as="sourcePoint" />
            <mxPoint x="1170" y="25" as="targetPoint" />
          </mxGeometry>
        </mxCell>
        <mxCell id="05Kp0AucWtGKDs6EXRJo-59" value="Message&lt;div&gt;System&lt;/div&gt;" style="rounded=1;whiteSpace=wrap;html=1;" vertex="1" parent="xe_D3SM2XZq7FrdhX7PX-1">
          <mxGeometry x="1180" y="15" width="90" height="40" as="geometry" />
        </mxCell>
        <mxCell id="05Kp0AucWtGKDs6EXRJo-61" value="" style="edgeStyle=elbowEdgeStyle;fontSize=12;html=1;endArrow=blockThin;endFill=1;rounded=0;startSize=8;endSize=8;curved=1;exitX=1;exitY=0.5;exitDx=0;exitDy=0;" edge="1" parent="xe_D3SM2XZq7FrdhX7PX-1" source="05Kp0AucWtGKDs6EXRJo-59">
          <mxGeometry width="160" relative="1" as="geometry">
            <mxPoint x="1285" y="31.79" as="sourcePoint" />
            <mxPoint x="1320" y="35" as="targetPoint" />
          </mxGeometry>
        </mxCell>
        <mxCell id="05Kp0AucWtGKDs6EXRJo-62" value="&amp;nbsp;Add&lt;div&gt;Members&lt;/div&gt;" style="rounded=1;whiteSpace=wrap;html=1;" vertex="1" parent="xe_D3SM2XZq7FrdhX7PX-1">
          <mxGeometry x="1320" y="15" width="70" height="40" as="geometry" />
        </mxCell>
        <mxCell id="05Kp0AucWtGKDs6EXRJo-63" value="" style="edgeStyle=elbowEdgeStyle;fontSize=12;html=1;endArrow=blockThin;endFill=1;rounded=0;startSize=8;endSize=8;curved=1;" edge="1" parent="xe_D3SM2XZq7FrdhX7PX-1">
          <mxGeometry width="160" relative="1" as="geometry">
            <mxPoint x="1390" y="25" as="sourcePoint" />
            <mxPoint x="1440" y="25" as="targetPoint" />
          </mxGeometry>
        </mxCell>
        <mxCell id="05Kp0AucWtGKDs6EXRJo-64" value="Logout" style="rounded=1;whiteSpace=wrap;html=1;" vertex="1" parent="xe_D3SM2XZq7FrdhX7PX-1">
          <mxGeometry x="1440" y="15" width="70" height="40" as="geometry" />
        </mxCell>
        <mxCell id="05Kp0AucWtGKDs6EXRJo-65" value="" style="edgeStyle=elbowEdgeStyle;fontSize=12;html=1;endArrow=blockThin;endFill=1;rounded=0;startSize=8;endSize=8;curved=1;" edge="1" parent="xe_D3SM2XZq7FrdhX7PX-1">
          <mxGeometry width="160" relative="1" as="geometry">
            <mxPoint x="1510" y="34.29" as="sourcePoint" />
            <mxPoint x="1560" y="35" as="targetPoint" />
          </mxGeometry>
        </mxCell>
        <mxCell id="05Kp0AucWtGKDs6EXRJo-67" value="" style="points=[[0.145,0.145,0],[0.5,0,0],[0.855,0.145,0],[1,0.5,0],[0.855,0.855,0],[0.5,1,0],[0.145,0.855,0],[0,0.5,0]];shape=mxgraph.bpmn.event;html=1;verticalLabelPosition=bottom;labelBackgroundColor=#ffffff;verticalAlign=top;align=center;perimeter=ellipsePerimeter;outlineConnect=0;aspect=fixed;outline=end;symbol=terminate2;" vertex="1" parent="xe_D3SM2XZq7FrdhX7PX-1">
          <mxGeometry x="1560" y="15" width="50" height="50" as="geometry" />
        </mxCell>
        <mxCell id="LZQYQP9SohFktknV7NJk-6" value="" style="edgeStyle=elbowEdgeStyle;fontSize=12;html=1;endFill=0;startFill=0;endSize=6;startSize=6;dashed=1;dashPattern=1 4;endArrow=openThin;startArrow=none;rounded=0;exitX=0.75;exitY=1;exitDx=0;exitDy=0;strokeWidth=2;" edge="1" parent="xe_D3SM2XZq7FrdhX7PX-1" source="05Kp0AucWtGKDs6EXRJo-37">
          <mxGeometry width="160" relative="1" as="geometry">
            <mxPoint x="440" y="65" as="sourcePoint" />
            <mxPoint x="190" y="135" as="targetPoint" />
            <Array as="points">
              <mxPoint x="190" y="55" />
            </Array>
          </mxGeometry>
        </mxCell>
        <mxCell id="LZQYQP9SohFktknV7NJk-18" value="" style="edgeStyle=elbowEdgeStyle;fontSize=12;html=1;endFill=0;startFill=0;endSize=6;startSize=6;dashed=1;dashPattern=1 4;endArrow=none;startArrow=none;rounded=0;strokeWidth=2;" edge="1" parent="xe_D3SM2XZq7FrdhX7PX-1">
          <mxGeometry width="160" relative="1" as="geometry">
            <mxPoint x="260" y="85" as="sourcePoint" />
            <mxPoint x="440" y="85" as="targetPoint" />
          </mxGeometry>
        </mxCell>
        <mxCell id="LZQYQP9SohFktknV7NJk-20" value="" style="edgeStyle=elbowEdgeStyle;fontSize=12;html=1;endFill=0;startFill=0;endSize=6;startSize=6;dashed=1;dashPattern=1 4;endArrow=none;startArrow=none;rounded=0;" edge="1" parent="xe_D3SM2XZq7FrdhX7PX-1">
          <mxGeometry width="160" relative="1" as="geometry">
            <mxPoint x="430" y="85" as="sourcePoint" />
            <mxPoint x="430" y="75" as="targetPoint" />
            <Array as="points">
              <mxPoint x="430" y="55" />
            </Array>
          </mxGeometry>
        </mxCell>
        <mxCell id="LZQYQP9SohFktknV7NJk-21" value="" style="edgeStyle=elbowEdgeStyle;fontSize=12;html=1;endFill=0;startFill=0;endSize=6;startSize=6;dashed=1;dashPattern=1 4;endArrow=openThin;startArrow=none;rounded=0;exitX=0.75;exitY=1;exitDx=0;exitDy=0;strokeWidth=2;" edge="1" parent="xe_D3SM2XZq7FrdhX7PX-1" source="05Kp0AucWtGKDs6EXRJo-48">
          <mxGeometry width="160" relative="1" as="geometry">
            <mxPoint x="560" y="75" as="sourcePoint" />
            <mxPoint x="660" y="125" as="targetPoint" />
            <Array as="points">
              <mxPoint x="660" y="85" />
            </Array>
          </mxGeometry>
        </mxCell>
      </root>
    </mxGraphModel>
  </diagram>
  <diagram id="_G21otHdub9L7zHAK5ap" name="Page-2">
    <mxGraphModel dx="1400" dy="743" grid="1" gridSize="10" guides="1" tooltips="1" connect="1" arrows="1" fold="1" page="1" pageScale="1" pageWidth="850" pageHeight="1100" math="0" shadow="0">
      <root>
        <mxCell id="0" />
        <mxCell id="1" parent="0" />
        <mxCell id="wCNhFvOB16IV4__2AZqn-1" value="job portal" style="swimlane;html=1;childLayout=stackLayout;resizeParent=1;resizeParentMax=0;horizontal=0;startSize=20;horizontalStack=0;whiteSpace=wrap;" parent="1" vertex="1">
          <mxGeometry y="120" width="1370" height="610" as="geometry" />
        </mxCell>
        <mxCell id="wCNhFvOB16IV4__2AZqn-2" value="job seeker" style="swimlane;html=1;startSize=20;horizontal=0;" parent="wCNhFvOB16IV4__2AZqn-1" vertex="1">
          <mxGeometry x="20" width="1350" height="200" as="geometry" />
        </mxCell>
        <mxCell id="wCNhFvOB16IV4__2AZqn-3" value="job provider" style="swimlane;html=1;startSize=20;horizontal=0;" parent="wCNhFvOB16IV4__2AZqn-1" vertex="1">
          <mxGeometry x="20" y="200" width="1350" height="210" as="geometry" />
        </mxCell>
        <mxCell id="38DihcCSRYnXK4v_NiwM-33" value="" style="ellipse;whiteSpace=wrap;html=1;aspect=fixed;" parent="wCNhFvOB16IV4__2AZqn-3" vertex="1">
          <mxGeometry x="37.94" y="22.22285714285715" width="12.055138321133184" height="12.055138321133184" as="geometry" />
        </mxCell>
        <mxCell id="wCNhFvOB16IV4__2AZqn-4" value="admin" style="swimlane;html=1;startSize=20;horizontal=0;" parent="wCNhFvOB16IV4__2AZqn-1" vertex="1">
          <mxGeometry x="20" y="410" width="1350" height="200" as="geometry" />
        </mxCell>
        <mxCell id="X9jZD7ZaqMqEXM-_COL9-18" value="" style="ellipse;whiteSpace=wrap;html=1;aspect=fixed;" parent="wCNhFvOB16IV4__2AZqn-4" vertex="1">
          <mxGeometry x="29.999999999999996" y="64.55000000000001" width="20" height="20" as="geometry" />
        </mxCell>
        <mxCell id="X9jZD7ZaqMqEXM-_COL9-21" value="skill assessment" style="rounded=1;whiteSpace=wrap;html=1;" parent="wCNhFvOB16IV4__2AZqn-4" vertex="1">
          <mxGeometry x="970.0008411214953" y="42.344545454545454" width="79.90654205607476" height="43.63636363636363" as="geometry" />
        </mxCell>
        <mxCell id="X9jZD7ZaqMqEXM-_COL9-22" value="categories" style="rounded=1;whiteSpace=wrap;html=1;" parent="wCNhFvOB16IV4__2AZqn-4" vertex="1">
          <mxGeometry x="830.0008411214953" y="40.91454545454545" width="79.90654205607476" height="43.63636363636363" as="geometry" />
        </mxCell>
        <mxCell id="X9jZD7ZaqMqEXM-_COL9-15" value="Logout" style="rounded=1;whiteSpace=wrap;html=1;" parent="wCNhFvOB16IV4__2AZqn-4" vertex="1">
          <mxGeometry x="1090.0014018691586" y="31.434545454545514" width="97.66355140186916" height="54.54545454545454" as="geometry" />
        </mxCell>
        <mxCell id="X9jZD7ZaqMqEXM-_COL9-17" value="" style="points=[[0.145,0.145,0],[0.5,0,0],[0.855,0.145,0],[1,0.5,0],[0.855,0.855,0],[0.5,1,0],[0.145,0.855,0],[0,0.5,0]];shape=mxgraph.bpmn.event;html=1;verticalLabelPosition=bottom;labelBackgroundColor=#ffffff;verticalAlign=top;align=center;perimeter=ellipsePerimeter;outlineConnect=0;aspect=fixed;outline=end;symbol=terminate2;" parent="wCNhFvOB16IV4__2AZqn-4" vertex="1">
          <mxGeometry x="1230" y="40.91" width="31.71" height="31.71" as="geometry" />
        </mxCell>
        <mxCell id="X9jZD7ZaqMqEXM-_COL9-27" value="" style="edgeStyle=elbowEdgeStyle;fontSize=12;html=1;endArrow=blockThin;endFill=1;rounded=0;" parent="wCNhFvOB16IV4__2AZqn-4" edge="1">
          <mxGeometry width="160" relative="1" as="geometry">
            <mxPoint x="1050" y="60" as="sourcePoint" />
            <mxPoint x="1090" y="60" as="targetPoint" />
          </mxGeometry>
        </mxCell>
        <mxCell id="X9jZD7ZaqMqEXM-_COL9-36" value="" style="edgeStyle=elbowEdgeStyle;fontSize=12;html=1;endArrow=blockThin;endFill=1;rounded=0;" parent="wCNhFvOB16IV4__2AZqn-4" edge="1">
          <mxGeometry width="160" relative="1" as="geometry">
            <mxPoint x="1187.6599999999999" y="58.120000000000005" as="sourcePoint" />
            <mxPoint x="1230" y="58" as="targetPoint" />
          </mxGeometry>
        </mxCell>
        <mxCell id="X9jZD7ZaqMqEXM-_COL9-2" value="" style="edgeStyle=elbowEdgeStyle;fontSize=12;html=1;endArrow=blockThin;endFill=1;rounded=0;startSize=8;endSize=8;curved=1;" parent="1" edge="1">
          <mxGeometry width="160" relative="1" as="geometry">
            <mxPoint x="80" y="597.2727272727273" as="sourcePoint" />
            <mxPoint x="115.51401869158877" y="597.2727272727273" as="targetPoint" />
          </mxGeometry>
        </mxCell>
        <mxCell id="X9jZD7ZaqMqEXM-_COL9-3" value="Login" style="rounded=1;whiteSpace=wrap;html=1;" parent="1" vertex="1">
          <mxGeometry x="115.51401869158877" y="575.4545454545455" width="62.14953271028038" height="32.72727272727273" as="geometry" />
        </mxCell>
        <mxCell id="X9jZD7ZaqMqEXM-_COL9-4" value="" style="edgeStyle=elbowEdgeStyle;fontSize=12;html=1;endArrow=blockThin;endFill=1;rounded=0;startSize=8;endSize=8;curved=1;" parent="1" edge="1">
          <mxGeometry width="160" relative="1" as="geometry">
            <mxPoint x="177.66355140186914" y="597.2727272727273" as="sourcePoint" />
            <mxPoint x="222.0560747663551" y="597.2727272727273" as="targetPoint" />
          </mxGeometry>
        </mxCell>
        <mxCell id="X9jZD7ZaqMqEXM-_COL9-5" value="Job Provider&lt;div&gt;Management&lt;/div&gt;" style="rounded=1;whiteSpace=wrap;html=1;" parent="1" vertex="1">
          <mxGeometry x="222.0560747663551" y="575.4545454545455" width="71.02803738317755" height="43.63636363636363" as="geometry" />
        </mxCell>
        <mxCell id="X9jZD7ZaqMqEXM-_COL9-6" value="" style="edgeStyle=elbowEdgeStyle;fontSize=12;html=1;endArrow=blockThin;endFill=1;rounded=0;startSize=8;endSize=8;curved=1;" parent="1" edge="1">
          <mxGeometry width="160" relative="1" as="geometry">
            <mxPoint x="293.08411214953264" y="597.2727272727273" as="sourcePoint" />
            <mxPoint x="337.47663551401865" y="597.2727272727273" as="targetPoint" />
          </mxGeometry>
        </mxCell>
        <mxCell id="X9jZD7ZaqMqEXM-_COL9-7" value="Jobseeker&lt;div&gt;Mangement&lt;/div&gt;" style="rounded=1;whiteSpace=wrap;html=1;" parent="1" vertex="1">
          <mxGeometry x="337.47663551401865" y="575.4545454545455" width="97.66355140186916" height="54.54545454545454" as="geometry" />
        </mxCell>
        <mxCell id="X9jZD7ZaqMqEXM-_COL9-8" value="" style="edgeStyle=elbowEdgeStyle;fontSize=12;html=1;endArrow=blockThin;endFill=1;rounded=0;startSize=8;endSize=8;curved=1;" parent="1" edge="1">
          <mxGeometry width="160" relative="1" as="geometry">
            <mxPoint x="435.1401869158878" y="597.2727272727273" as="sourcePoint" />
            <mxPoint x="470.6542056074766" y="597.2727272727273" as="targetPoint" />
          </mxGeometry>
        </mxCell>
        <mxCell id="X9jZD7ZaqMqEXM-_COL9-9" value="Monitizing&lt;div&gt;Jobpost&lt;/div&gt;" style="rounded=1;whiteSpace=wrap;html=1;" parent="1" vertex="1">
          <mxGeometry x="479.53271028037375" y="575.4545454545455" width="97.66355140186916" height="43.63636363636363" as="geometry" />
        </mxCell>
        <mxCell id="X9jZD7ZaqMqEXM-_COL9-10" value="" style="edgeStyle=elbowEdgeStyle;fontSize=12;html=1;endArrow=blockThin;endFill=1;rounded=0;startSize=8;endSize=8;curved=1;" parent="1" edge="1">
          <mxGeometry width="160" relative="1" as="geometry">
            <mxPoint x="577.1962616822431" y="597.2727272727273" as="sourcePoint" />
            <mxPoint x="609.1588785046729" y="597.2727272727273" as="targetPoint" />
          </mxGeometry>
        </mxCell>
        <mxCell id="X9jZD7ZaqMqEXM-_COL9-11" value="Subscription&lt;div&gt;Plan&lt;/div&gt;" style="rounded=1;whiteSpace=wrap;html=1;" parent="1" vertex="1">
          <mxGeometry x="612.7102803738317" y="570" width="79.90654205607476" height="49.090909090909086" as="geometry" />
        </mxCell>
        <mxCell id="X9jZD7ZaqMqEXM-_COL9-12" value="" style="edgeStyle=elbowEdgeStyle;fontSize=12;html=1;endArrow=blockThin;endFill=1;rounded=0;startSize=8;endSize=8;curved=1;" parent="1" edge="1">
          <mxGeometry width="160" relative="1" as="geometry">
            <mxPoint x="692.6168224299064" y="597.2727272727273" as="sourcePoint" />
            <mxPoint x="728.1308411214953" y="597.2727272727273" as="targetPoint" />
          </mxGeometry>
        </mxCell>
        <mxCell id="X9jZD7ZaqMqEXM-_COL9-13" value="Notification&lt;div&gt;Plan&lt;/div&gt;" style="rounded=1;whiteSpace=wrap;html=1;" parent="1" vertex="1">
          <mxGeometry x="728.1308411214953" y="575.4545454545455" width="79.90654205607476" height="43.63636363636363" as="geometry" />
        </mxCell>
        <mxCell id="X9jZD7ZaqMqEXM-_COL9-14" value="" style="edgeStyle=elbowEdgeStyle;fontSize=12;html=1;endArrow=blockThin;endFill=1;rounded=0;startSize=8;endSize=8;curved=1;" parent="1" edge="1">
          <mxGeometry width="160" relative="1" as="geometry">
            <mxPoint x="808.0373831775702" y="596.4981818181818" as="sourcePoint" />
            <mxPoint x="843.5514018691587" y="596.1818181818181" as="targetPoint" />
          </mxGeometry>
        </mxCell>
        <mxCell id="X9jZD7ZaqMqEXM-_COL9-16" value="" style="edgeStyle=elbowEdgeStyle;fontSize=12;html=1;endArrow=blockThin;endFill=1;rounded=0;startSize=8;endSize=8;curved=1;" parent="1" edge="1">
          <mxGeometry width="160" relative="1" as="geometry">
            <mxPoint x="941.2149532710279" y="597.2727272727273" as="sourcePoint" />
            <mxPoint x="985.607476635514" y="597.2727272727273" as="targetPoint" />
          </mxGeometry>
        </mxCell>
        <mxCell id="X9jZD7ZaqMqEXM-_COL9-37" value="" style="edgeStyle=orthogonalEdgeStyle;fontSize=12;html=1;endFill=0;startFill=0;endSize=6;startSize=6;dashed=1;dashPattern=1 4;endArrow=openThin;startArrow=none;rounded=0;strokeWidth=2;exitX=0.75;exitY=1;exitDx=0;exitDy=0;" parent="1" source="HR48xnIC__uPURl9pQUw-4" edge="1">
          <mxGeometry width="160" relative="1" as="geometry">
            <mxPoint x="170" y="220" as="sourcePoint" />
            <mxPoint x="410" y="570" as="targetPoint" />
            <Array as="points">
              <mxPoint x="171" y="281" />
              <mxPoint x="320" y="281" />
              <mxPoint x="320" y="480" />
              <mxPoint x="410" y="480" />
            </Array>
          </mxGeometry>
        </mxCell>
        <mxCell id="38DihcCSRYnXK4v_NiwM-2" value="" style="edgeStyle=elbowEdgeStyle;fontSize=12;html=1;endArrow=blockThin;endFill=1;rounded=0;startSize=8;endSize=8;curved=1;" parent="1" edge="1">
          <mxGeometry width="160" relative="1" as="geometry">
            <mxPoint x="80" y="340.3703703703704" as="sourcePoint" />
            <mxPoint x="116.28571428571429" y="340.3703703703704" as="targetPoint" />
          </mxGeometry>
        </mxCell>
        <mxCell id="38DihcCSRYnXK4v_NiwM-3" value="Register" style="rounded=1;whiteSpace=wrap;html=1;" parent="1" vertex="1">
          <mxGeometry x="119.44099378881987" y="324.0740740740741" width="55.21739130434783" height="32.592592592592595" as="geometry" />
        </mxCell>
        <mxCell id="38DihcCSRYnXK4v_NiwM-4" value="" style="edgeStyle=elbowEdgeStyle;fontSize=12;html=1;endArrow=blockThin;endFill=1;rounded=0;startSize=8;endSize=8;curved=1;" parent="1" edge="1">
          <mxGeometry width="160" relative="1" as="geometry">
            <mxPoint x="174.65838509316768" y="340.3703703703704" as="sourcePoint" />
            <mxPoint x="214.09937888198758" y="340.3703703703704" as="targetPoint" />
          </mxGeometry>
        </mxCell>
        <mxCell id="38DihcCSRYnXK4v_NiwM-5" value="Login" style="rounded=1;whiteSpace=wrap;html=1;" parent="1" vertex="1">
          <mxGeometry x="214.09937888198758" y="324.0740740740741" width="55.21739130434783" height="32.592592592592595" as="geometry" />
        </mxCell>
        <mxCell id="38DihcCSRYnXK4v_NiwM-6" value="" style="edgeStyle=elbowEdgeStyle;fontSize=12;html=1;endArrow=blockThin;endFill=1;rounded=0;startSize=8;endSize=8;curved=1;" parent="1" edge="1">
          <mxGeometry width="160" relative="1" as="geometry">
            <mxPoint x="269.31677018633536" y="340.3703703703704" as="sourcePoint" />
            <mxPoint x="308.7577639751553" y="340.3703703703704" as="targetPoint" />
          </mxGeometry>
        </mxCell>
        <mxCell id="38DihcCSRYnXK4v_NiwM-7" value="Profile&lt;div&gt;Creation&lt;/div&gt;" style="rounded=1;whiteSpace=wrap;html=1;" parent="1" vertex="1">
          <mxGeometry x="387.639751552795" y="328.14814814814815" width="64.6832298136646" height="32.592592592592595" as="geometry" />
        </mxCell>
        <mxCell id="38DihcCSRYnXK4v_NiwM-8" value="" style="points=[[0.25,0.25,0],[0.5,0,0],[0.75,0.25,0],[1,0.5,0],[0.75,0.75,0],[0.5,1,0],[0.25,0.75,0],[0,0.5,0]];shape=mxgraph.bpmn.gateway2;html=1;verticalLabelPosition=bottom;labelBackgroundColor=#ffffff;verticalAlign=top;align=center;perimeter=rhombusPerimeter;outlineConnect=0;outline=none;symbol=none;" parent="1" vertex="1">
          <mxGeometry x="308.7577639751553" y="320" width="39.440993788819874" height="36.666666666666664" as="geometry" />
        </mxCell>
        <mxCell id="38DihcCSRYnXK4v_NiwM-9" value="" style="edgeStyle=orthogonalEdgeStyle;fontSize=12;html=1;endArrow=blockThin;endFill=1;rounded=0;startSize=8;endSize=8;exitX=0.5;exitY=1;exitDx=0;exitDy=0;exitPerimeter=0;entryX=0.5;entryY=1;entryDx=0;entryDy=0;" parent="1" source="38DihcCSRYnXK4v_NiwM-8" target="38DihcCSRYnXK4v_NiwM-5" edge="1">
          <mxGeometry width="160" relative="1" as="geometry">
            <mxPoint x="324.53416149068323" y="381.1111111111111" as="sourcePoint" />
            <mxPoint x="237.7639751552795" y="372.96296296296293" as="targetPoint" />
            <Array as="points">
              <mxPoint x="328.4782608695652" y="372.96296296296293" />
              <mxPoint x="241.70807453416148" y="372.96296296296293" />
            </Array>
          </mxGeometry>
        </mxCell>
        <mxCell id="38DihcCSRYnXK4v_NiwM-10" value="" style="edgeStyle=elbowEdgeStyle;fontSize=12;html=1;endArrow=blockThin;endFill=1;rounded=0;startSize=8;endSize=8;curved=1;" parent="1" edge="1">
          <mxGeometry width="160" relative="1" as="geometry">
            <mxPoint x="348.19875776397515" y="340.3703703703704" as="sourcePoint" />
            <mxPoint x="387.639751552795" y="340.3703703703704" as="targetPoint" />
          </mxGeometry>
        </mxCell>
        <mxCell id="38DihcCSRYnXK4v_NiwM-11" value="" style="edgeStyle=elbowEdgeStyle;fontSize=12;html=1;endArrow=blockThin;endFill=1;rounded=0;startSize=8;endSize=8;curved=1;" parent="1" edge="1">
          <mxGeometry width="160" relative="1" as="geometry">
            <mxPoint x="450.74534161490686" y="340.3703703703704" as="sourcePoint" />
            <mxPoint x="482.29813664596276" y="340.3703703703704" as="targetPoint" />
          </mxGeometry>
        </mxCell>
        <mxCell id="38DihcCSRYnXK4v_NiwM-12" value="Subscription&lt;div&gt;Plan&lt;/div&gt;" style="rounded=1;whiteSpace=wrap;html=1;" parent="1" vertex="1">
          <mxGeometry x="482.29813664596276" y="332.22222222222223" width="55.21739130434783" height="40.74074074074074" as="geometry" />
        </mxCell>
        <mxCell id="38DihcCSRYnXK4v_NiwM-13" value="" style="edgeStyle=elbowEdgeStyle;fontSize=12;html=1;endArrow=blockThin;endFill=1;rounded=0;startSize=8;endSize=8;curved=1;" parent="1" edge="1">
          <mxGeometry width="160" relative="1" as="geometry">
            <mxPoint x="537.5155279503106" y="348.51851851851853" as="sourcePoint" />
            <mxPoint x="576.9565217391304" y="348.51851851851853" as="targetPoint" />
          </mxGeometry>
        </mxCell>
        <mxCell id="38DihcCSRYnXK4v_NiwM-14" value="Job Posting" style="rounded=1;whiteSpace=wrap;html=1;" parent="1" vertex="1">
          <mxGeometry x="576.9565217391304" y="332.22222222222223" width="63.1055900621118" height="32.592592592592595" as="geometry" />
        </mxCell>
        <mxCell id="38DihcCSRYnXK4v_NiwM-15" value="" style="edgeStyle=elbowEdgeStyle;fontSize=12;html=1;endArrow=blockThin;endFill=1;rounded=0;startSize=8;endSize=8;curved=1;" parent="1" edge="1">
          <mxGeometry width="160" relative="1" as="geometry">
            <mxPoint x="640.0621118012422" y="348.51851851851853" as="sourcePoint" />
            <mxPoint x="676.3478260869565" y="348.51851851851853" as="targetPoint" />
          </mxGeometry>
        </mxCell>
        <mxCell id="38DihcCSRYnXK4v_NiwM-16" value="Search&lt;div&gt;Profile&lt;/div&gt;" style="rounded=1;whiteSpace=wrap;html=1;" parent="1" vertex="1">
          <mxGeometry x="679.503105590062" y="328.14814814814815" width="70.99378881987577" height="36.666666666666664" as="geometry" />
        </mxCell>
        <mxCell id="38DihcCSRYnXK4v_NiwM-17" value="" style="edgeStyle=elbowEdgeStyle;fontSize=12;html=1;endArrow=blockThin;endFill=1;rounded=0;startSize=8;endSize=8;curved=1;" parent="1" edge="1">
          <mxGeometry width="160" relative="1" as="geometry">
            <mxPoint x="750.4968944099378" y="348.51851851851853" as="sourcePoint" />
            <mxPoint x="789.9378881987577" y="348.51851851851853" as="targetPoint" />
          </mxGeometry>
        </mxCell>
        <mxCell id="38DihcCSRYnXK4v_NiwM-18" value="View&lt;div&gt;Application&lt;/div&gt;" style="rounded=1;whiteSpace=wrap;html=1;" parent="1" vertex="1">
          <mxGeometry x="789.9378881987577" y="328.14814814814815" width="70.99378881987577" height="36.666666666666664" as="geometry" />
        </mxCell>
        <mxCell id="38DihcCSRYnXK4v_NiwM-19" value="" style="edgeStyle=elbowEdgeStyle;fontSize=12;html=1;endArrow=blockThin;endFill=1;rounded=0;startSize=8;endSize=8;curved=1;" parent="1" edge="1">
          <mxGeometry width="160" relative="1" as="geometry">
            <mxPoint x="860.9316770186336" y="348.51851851851853" as="sourcePoint" />
            <mxPoint x="900.3726708074533" y="348.51851851851853" as="targetPoint" />
          </mxGeometry>
        </mxCell>
        <mxCell id="38DihcCSRYnXK4v_NiwM-20" value="Sorting" style="rounded=1;whiteSpace=wrap;html=1;" parent="1" vertex="1">
          <mxGeometry x="900.3726708074533" y="328.14814814814815" width="70.99378881987577" height="36.666666666666664" as="geometry" />
        </mxCell>
        <mxCell id="38DihcCSRYnXK4v_NiwM-21" value="" style="edgeStyle=elbowEdgeStyle;fontSize=12;html=1;endArrow=blockThin;endFill=1;rounded=0;startSize=8;endSize=8;curved=1;" parent="1" edge="1">
          <mxGeometry width="160" relative="1" as="geometry">
            <mxPoint x="971.3664596273293" y="340.3703703703704" as="sourcePoint" />
            <mxPoint x="1002.9192546583851" y="340.3703703703704" as="targetPoint" />
          </mxGeometry>
        </mxCell>
        <mxCell id="38DihcCSRYnXK4v_NiwM-22" value="Message&lt;div&gt;System&lt;/div&gt;" style="rounded=1;whiteSpace=wrap;html=1;" parent="1" vertex="1">
          <mxGeometry x="1010.8074534161491" y="332.22222222222223" width="70.99378881987577" height="32.592592592592595" as="geometry" />
        </mxCell>
        <mxCell id="38DihcCSRYnXK4v_NiwM-23" value="" style="edgeStyle=elbowEdgeStyle;fontSize=12;html=1;endArrow=blockThin;endFill=1;rounded=0;startSize=8;endSize=8;curved=1;exitX=1;exitY=0.5;exitDx=0;exitDy=0;" parent="1" source="38DihcCSRYnXK4v_NiwM-22" edge="1">
          <mxGeometry width="160" relative="1" as="geometry">
            <mxPoint x="1093.633540372671" y="345.902962962963" as="sourcePoint" />
            <mxPoint x="1121.2422360248445" y="348.51851851851853" as="targetPoint" />
          </mxGeometry>
        </mxCell>
        <mxCell id="38DihcCSRYnXK4v_NiwM-24" value="&amp;nbsp;Add&lt;div&gt;Members&lt;/div&gt;" style="rounded=1;whiteSpace=wrap;html=1;" parent="1" vertex="1">
          <mxGeometry x="1121.2422360248445" y="332.22222222222223" width="55.21739130434783" height="32.592592592592595" as="geometry" />
        </mxCell>
        <mxCell id="38DihcCSRYnXK4v_NiwM-25" value="" style="edgeStyle=elbowEdgeStyle;fontSize=12;html=1;endArrow=blockThin;endFill=1;rounded=0;startSize=8;endSize=8;curved=1;" parent="1" edge="1">
          <mxGeometry width="160" relative="1" as="geometry">
            <mxPoint x="1176.4596273291925" y="340.3703703703704" as="sourcePoint" />
            <mxPoint x="1215.9006211180124" y="340.3703703703704" as="targetPoint" />
          </mxGeometry>
        </mxCell>
        <mxCell id="38DihcCSRYnXK4v_NiwM-26" value="Logout" style="rounded=1;whiteSpace=wrap;html=1;" parent="1" vertex="1">
          <mxGeometry x="1215.9006211180124" y="332.22222222222223" width="55.21739130434783" height="32.592592592592595" as="geometry" />
        </mxCell>
        <mxCell id="38DihcCSRYnXK4v_NiwM-27" value="" style="edgeStyle=elbowEdgeStyle;fontSize=12;html=1;endArrow=blockThin;endFill=1;rounded=0;startSize=8;endSize=8;curved=1;" parent="1" edge="1">
          <mxGeometry width="160" relative="1" as="geometry">
            <mxPoint x="1271.1180124223602" y="347.94" as="sourcePoint" />
            <mxPoint x="1310.55900621118" y="348.51851851851853" as="targetPoint" />
          </mxGeometry>
        </mxCell>
        <mxCell id="38DihcCSRYnXK4v_NiwM-28" value="" style="points=[[0.145,0.145,0],[0.5,0,0],[0.855,0.145,0],[1,0.5,0],[0.855,0.855,0],[0.5,1,0],[0.145,0.855,0],[0,0.5,0]];shape=mxgraph.bpmn.event;html=1;verticalLabelPosition=bottom;labelBackgroundColor=#ffffff;verticalAlign=top;align=center;perimeter=ellipsePerimeter;outlineConnect=0;aspect=fixed;outline=end;symbol=terminate2;" parent="1" vertex="1">
          <mxGeometry x="1310.56" y="340" width="17.94" height="17.94" as="geometry" />
        </mxCell>
        <mxCell id="X9jZD7ZaqMqEXM-_COL9-40" value="" style="edgeStyle=elbowEdgeStyle;fontSize=12;html=1;endFill=0;startFill=0;endSize=6;startSize=6;dashed=1;dashPattern=1 4;endArrow=openThin;startArrow=none;rounded=0;elbow=vertical;entryX=0.5;entryY=0;entryDx=0;entryDy=0;strokeWidth=2;" parent="1" target="X9jZD7ZaqMqEXM-_COL9-5" edge="1">
          <mxGeometry width="160" relative="1" as="geometry">
            <mxPoint x="138.76" y="356.66999999999996" as="sourcePoint" />
            <mxPoint x="308.76" y="616.67" as="targetPoint" />
          </mxGeometry>
        </mxCell>
        <mxCell id="HR48xnIC__uPURl9pQUw-2" value="" style="ellipse;whiteSpace=wrap;html=1;aspect=fixed;" parent="1" vertex="1">
          <mxGeometry x="100" y="140.58285714285714" width="12.055138321133184" height="12.055138321133184" as="geometry" />
        </mxCell>
        <mxCell id="HR48xnIC__uPURl9pQUw-3" value="" style="edgeStyle=elbowEdgeStyle;fontSize=12;html=1;endArrow=blockThin;endFill=1;rounded=0;" parent="1" edge="1">
          <mxGeometry width="160" relative="1" as="geometry">
            <mxPoint x="111.19496855345912" y="146" as="sourcePoint" />
            <mxPoint x="127.67295597484275" y="146" as="targetPoint" />
          </mxGeometry>
        </mxCell>
        <mxCell id="HR48xnIC__uPURl9pQUw-4" value="Register" style="rounded=1;whiteSpace=wrap;html=1;" parent="1" vertex="1">
          <mxGeometry x="127.67295597484275" y="136.66666666666666" width="57.67295597484276" height="26.666666666666668" as="geometry" />
        </mxCell>
        <mxCell id="HR48xnIC__uPURl9pQUw-5" value="" style="edgeStyle=elbowEdgeStyle;fontSize=12;html=1;endArrow=blockThin;endFill=1;rounded=0;" parent="1" edge="1">
          <mxGeometry width="160" relative="1" as="geometry">
            <mxPoint x="185.3459119496855" y="150" as="sourcePoint" />
            <mxPoint x="201.82389937106913" y="150" as="targetPoint" />
          </mxGeometry>
        </mxCell>
        <mxCell id="HR48xnIC__uPURl9pQUw-6" value="" style="edgeStyle=elbowEdgeStyle;fontSize=12;html=1;endArrow=blockThin;endFill=1;rounded=0;" parent="1" edge="1">
          <mxGeometry width="160" relative="1" as="geometry">
            <mxPoint x="267.73584905660374" y="150" as="sourcePoint" />
            <mxPoint x="300.691823899371" y="150" as="targetPoint" />
          </mxGeometry>
        </mxCell>
        <mxCell id="HR48xnIC__uPURl9pQUw-7" value="" style="points=[[0.25,0.25,0],[0.5,0,0],[0.75,0.25,0],[1,0.5,0],[0.75,0.75,0],[0.5,1,0],[0.25,0.75,0],[0,0.5,0]];shape=mxgraph.bpmn.gateway2;html=1;verticalLabelPosition=bottom;labelBackgroundColor=#ffffff;verticalAlign=top;align=center;perimeter=rhombusPerimeter;outlineConnect=0;outline=none;symbol=none;" parent="1" vertex="1">
          <mxGeometry x="300.691823899371" y="133.33333333333334" width="49.433962264150935" height="30" as="geometry" />
        </mxCell>
        <mxCell id="HR48xnIC__uPURl9pQUw-8" value="" style="edgeStyle=elbowEdgeStyle;fontSize=12;html=1;endArrow=blockThin;endFill=1;rounded=0;exitX=1;exitY=0.5;exitDx=0;exitDy=0;exitPerimeter=0;" parent="1" source="HR48xnIC__uPURl9pQUw-7" edge="1">
          <mxGeometry width="160" relative="1" as="geometry">
            <mxPoint x="358.3647798742138" y="150" as="sourcePoint" />
            <mxPoint x="370.7232704402516" y="148.66666666666669" as="targetPoint" />
          </mxGeometry>
        </mxCell>
        <mxCell id="HR48xnIC__uPURl9pQUw-9" value="" style="edgeStyle=elbowEdgeStyle;fontSize=12;html=1;endArrow=blockThin;endFill=1;rounded=0;" parent="1" edge="1">
          <mxGeometry width="160" relative="1" as="geometry">
            <mxPoint x="432.51572327044016" y="150" as="sourcePoint" />
            <mxPoint x="473.7106918238993" y="150" as="targetPoint" />
          </mxGeometry>
        </mxCell>
        <mxCell id="HR48xnIC__uPURl9pQUw-10" value="Subscription&lt;div&gt;Plan&lt;/div&gt;" style="rounded=1;whiteSpace=wrap;html=1;" parent="1" vertex="1">
          <mxGeometry x="473.7106918238993" y="136.66666666666666" width="65.91194968553457" height="26.666666666666668" as="geometry" />
        </mxCell>
        <mxCell id="HR48xnIC__uPURl9pQUw-11" value="" style="edgeStyle=elbowEdgeStyle;fontSize=12;html=1;endArrow=blockThin;endFill=1;rounded=0;" parent="1" edge="1">
          <mxGeometry width="160" relative="1" as="geometry">
            <mxPoint x="539.622641509434" y="150" as="sourcePoint" />
            <mxPoint x="564.3396226415093" y="150" as="targetPoint" />
          </mxGeometry>
        </mxCell>
        <mxCell id="HR48xnIC__uPURl9pQUw-12" value="Search&lt;div&gt;Profile&lt;/div&gt;" style="rounded=1;whiteSpace=wrap;html=1;" parent="1" vertex="1">
          <mxGeometry x="564.3396226415093" y="136.66666666666666" width="74.15094339622641" height="26.666666666666668" as="geometry" />
        </mxCell>
        <mxCell id="HR48xnIC__uPURl9pQUw-13" value="" style="edgeStyle=elbowEdgeStyle;fontSize=12;html=1;endArrow=blockThin;endFill=1;rounded=0;" parent="1" edge="1">
          <mxGeometry width="160" relative="1" as="geometry">
            <mxPoint x="638.4905660377358" y="150" as="sourcePoint" />
            <mxPoint x="679.6855345911948" y="150" as="targetPoint" />
          </mxGeometry>
        </mxCell>
        <mxCell id="HR48xnIC__uPURl9pQUw-14" value="Follow&lt;div&gt;Profiles&lt;/div&gt;" style="rounded=1;whiteSpace=wrap;html=1;" parent="1" vertex="1">
          <mxGeometry x="679.6855345911948" y="136.66666666666666" width="65.91194968553457" height="26.666666666666668" as="geometry" />
        </mxCell>
        <mxCell id="HR48xnIC__uPURl9pQUw-15" value="" style="edgeStyle=elbowEdgeStyle;fontSize=12;html=1;endArrow=blockThin;endFill=1;rounded=0;" parent="1" edge="1">
          <mxGeometry width="160" relative="1" as="geometry">
            <mxPoint x="745.5974842767295" y="150" as="sourcePoint" />
            <mxPoint x="786.7924528301887" y="150" as="targetPoint" />
          </mxGeometry>
        </mxCell>
        <mxCell id="HR48xnIC__uPURl9pQUw-16" value="Search&lt;div&gt;Jobs&lt;/div&gt;" style="rounded=1;whiteSpace=wrap;html=1;" parent="1" vertex="1">
          <mxGeometry x="786.7924528301887" y="136.66666666666666" width="49.433962264150935" height="26.666666666666668" as="geometry" />
        </mxCell>
        <mxCell id="HR48xnIC__uPURl9pQUw-17" value="" style="edgeStyle=elbowEdgeStyle;fontSize=12;html=1;endArrow=blockThin;endFill=1;rounded=0;" parent="1" edge="1">
          <mxGeometry width="160" relative="1" as="geometry">
            <mxPoint x="836.2264150943396" y="150" as="sourcePoint" />
            <mxPoint x="873.3018867924528" y="150" as="targetPoint" />
          </mxGeometry>
        </mxCell>
        <mxCell id="HR48xnIC__uPURl9pQUw-18" value="Apply Job" style="rounded=1;whiteSpace=wrap;html=1;" parent="1" vertex="1">
          <mxGeometry x="877.4213836477986" y="136.66666666666666" width="57.67295597484276" height="26.666666666666668" as="geometry" />
        </mxCell>
        <mxCell id="HR48xnIC__uPURl9pQUw-19" value="" style="edgeStyle=elbowEdgeStyle;fontSize=12;html=1;endArrow=blockThin;endFill=1;rounded=0;" parent="1" edge="1">
          <mxGeometry width="160" relative="1" as="geometry">
            <mxPoint x="935.0943396226413" y="150" as="sourcePoint" />
            <mxPoint x="976.2893081761005" y="150" as="targetPoint" />
          </mxGeometry>
        </mxCell>
        <mxCell id="HR48xnIC__uPURl9pQUw-20" value="" style="points=[[0.25,0.25,0],[0.5,0,0],[0.75,0.25,0],[1,0.5,0],[0.75,0.75,0],[0.5,1,0],[0.25,0.75,0],[0,0.5,0]];shape=mxgraph.bpmn.gateway2;html=1;verticalLabelPosition=bottom;labelBackgroundColor=#ffffff;verticalAlign=top;align=center;perimeter=rhombusPerimeter;outlineConnect=0;outline=none;symbol=none;" parent="1" vertex="1">
          <mxGeometry x="976.2893081761005" y="130" width="41.19496855345912" height="33.333333333333336" as="geometry" />
        </mxCell>
        <mxCell id="HR48xnIC__uPURl9pQUw-21" value="" style="edgeStyle=elbowEdgeStyle;fontSize=12;html=1;endArrow=blockThin;endFill=1;rounded=0;exitX=1;exitY=0.5;exitDx=0;exitDy=0;exitPerimeter=0;" parent="1" source="HR48xnIC__uPURl9pQUw-20" edge="1">
          <mxGeometry width="160" relative="1" as="geometry">
            <mxPoint x="1025.723270440251" y="143.33333333333334" as="sourcePoint" />
            <mxPoint x="1042.2012578616354" y="146.66666666666666" as="targetPoint" />
            <Array as="points" />
          </mxGeometry>
        </mxCell>
        <mxCell id="HR48xnIC__uPURl9pQUw-22" value="View&lt;div&gt;Interview&lt;/div&gt;&lt;div&gt;Schedule&lt;/div&gt;" style="rounded=1;whiteSpace=wrap;html=1;" parent="1" vertex="1">
          <mxGeometry x="1042.2012578616354" y="133.33333333333334" width="49.433962264150935" height="36.66666666666667" as="geometry" />
        </mxCell>
        <mxCell id="HR48xnIC__uPURl9pQUw-23" value="" style="edgeStyle=orthogonalEdgeStyle;fontSize=12;html=1;endArrow=blockThin;endFill=1;rounded=0;" parent="1" edge="1">
          <mxGeometry width="160" relative="1" as="geometry">
            <mxPoint x="1001.0062893081758" y="176.66666666666669" as="sourcePoint" />
            <mxPoint x="1001.0062893081758" y="183.33333333333334" as="targetPoint" />
            <Array as="points">
              <mxPoint x="1001.0062893081758" y="163.33333333333334" />
              <mxPoint x="1001.0062893081758" y="163.33333333333334" />
            </Array>
          </mxGeometry>
        </mxCell>
        <mxCell id="HR48xnIC__uPURl9pQUw-24" value="Save Jobs" style="rounded=1;whiteSpace=wrap;html=1;" parent="1" vertex="1">
          <mxGeometry x="968.0503144654085" y="182" width="74.15094339622641" height="28" as="geometry" />
        </mxCell>
        <mxCell id="HR48xnIC__uPURl9pQUw-25" value="" style="edgeStyle=orthogonalEdgeStyle;fontSize=12;html=1;endArrow=blockThin;endFill=1;rounded=0;entryX=0.857;entryY=1;entryDx=0;entryDy=0;entryPerimeter=0;" parent="1" target="HR48xnIC__uPURl9pQUw-18" edge="1">
          <mxGeometry width="160" relative="1" as="geometry">
            <mxPoint x="968.0503144654085" y="196.66666666666669" as="sourcePoint" />
            <mxPoint x="926.8553459119496" y="170" as="targetPoint" />
            <Array as="points">
              <mxPoint x="968.0503144654085" y="190" />
              <mxPoint x="926.8553459119496" y="190" />
            </Array>
          </mxGeometry>
        </mxCell>
        <mxCell id="HR48xnIC__uPURl9pQUw-26" value="" style="edgeStyle=elbowEdgeStyle;fontSize=12;html=1;endArrow=blockThin;endFill=1;rounded=0;" parent="1" edge="1">
          <mxGeometry width="160" relative="1" as="geometry">
            <mxPoint x="1091.635220125786" y="150" as="sourcePoint" />
            <mxPoint x="1132.8301886792453" y="150" as="targetPoint" />
          </mxGeometry>
        </mxCell>
        <mxCell id="HR48xnIC__uPURl9pQUw-27" value="Message&lt;div&gt;System&lt;/div&gt;" style="rounded=1;whiteSpace=wrap;html=1;" parent="1" vertex="1">
          <mxGeometry x="1132.8301886792453" y="136.66666666666666" width="65.91194968553457" height="26.666666666666668" as="geometry" />
        </mxCell>
        <mxCell id="HR48xnIC__uPURl9pQUw-28" value="" style="edgeStyle=elbowEdgeStyle;fontSize=12;html=1;endArrow=blockThin;endFill=1;rounded=0;" parent="1" edge="1">
          <mxGeometry width="160" relative="1" as="geometry">
            <mxPoint x="1198.7421383647797" y="150" as="sourcePoint" />
            <mxPoint x="1231.698113207547" y="150" as="targetPoint" />
          </mxGeometry>
        </mxCell>
        <mxCell id="HR48xnIC__uPURl9pQUw-29" value="Logout" style="rounded=1;whiteSpace=wrap;html=1;" parent="1" vertex="1">
          <mxGeometry x="1231.698113207547" y="136.66666666666666" width="74.15094339622641" height="26.666666666666668" as="geometry" />
        </mxCell>
        <mxCell id="HR48xnIC__uPURl9pQUw-30" value="" style="edgeStyle=elbowEdgeStyle;fontSize=12;html=1;endArrow=blockThin;endFill=1;rounded=0;" parent="1" edge="1">
          <mxGeometry width="160" relative="1" as="geometry">
            <mxPoint x="1305.8490566037735" y="150" as="sourcePoint" />
            <mxPoint x="1338.8050314465406" y="150" as="targetPoint" />
          </mxGeometry>
        </mxCell>
        <mxCell id="HR48xnIC__uPURl9pQUw-31" value="" style="points=[[0.145,0.145,0],[0.5,0,0],[0.855,0.145,0],[1,0.5,0],[0.855,0.855,0],[0.5,1,0],[0.145,0.855,0],[0,0.5,0]];shape=mxgraph.bpmn.event;html=1;verticalLabelPosition=bottom;labelBackgroundColor=#ffffff;verticalAlign=top;align=center;perimeter=ellipsePerimeter;outlineConnect=0;aspect=fixed;outline=end;symbol=terminate2;" parent="1" vertex="1">
          <mxGeometry x="1338.8050314465406" y="142.25142857142856" width="12.055138321133184" height="12.055138321133184" as="geometry" />
        </mxCell>
        <mxCell id="HR48xnIC__uPURl9pQUw-32" value="Login" style="rounded=1;whiteSpace=wrap;html=1;" parent="1" vertex="1">
          <mxGeometry x="201.82389937106913" y="136.66666666666666" width="74.15094339622641" height="26.666666666666668" as="geometry" />
        </mxCell>
        <mxCell id="HR48xnIC__uPURl9pQUw-33" value="Profile&lt;div&gt;Creation&lt;/div&gt;" style="rounded=1;whiteSpace=wrap;html=1;" parent="1" vertex="1">
          <mxGeometry x="374.8427672955974" y="136.66666666666666" width="61.79245283018867" height="26.666666666666668" as="geometry" />
        </mxCell>
        <mxCell id="HR48xnIC__uPURl9pQUw-34" value="No" style="text;html=1;align=center;verticalAlign=middle;resizable=0;points=[];autosize=1;strokeColor=none;fillColor=none;" parent="1" vertex="1">
          <mxGeometry x="350.12578616352204" y="162" width="40" height="30" as="geometry" />
        </mxCell>
        <mxCell id="HR48xnIC__uPURl9pQUw-35" value="" style="edgeStyle=orthogonalEdgeStyle;fontSize=12;html=1;endArrow=blockThin;endFill=1;rounded=0;startSize=8;endSize=8;exitX=0.5;exitY=1;exitDx=0;exitDy=0;exitPerimeter=0;" parent="1" source="HR48xnIC__uPURl9pQUw-7" edge="1">
          <mxGeometry width="160" relative="1" as="geometry">
            <mxPoint x="325.4088050314465" y="191.33333333333334" as="sourcePoint" />
            <mxPoint x="243.01886792452828" y="170" as="targetPoint" />
            <Array as="points">
              <mxPoint x="325.4088050314465" y="192" />
              <mxPoint x="243.84276729559744" y="192" />
              <mxPoint x="243.84276729559744" y="170" />
            </Array>
          </mxGeometry>
        </mxCell>
      </root>
    </mxGraphModel>
  </diagram>
</mxfile>
